<mxfile host="65bd71144e">
    <diagram id="HyXh50aNnoCoys_JZRTJ" name="第1頁">
        <mxGraphModel dx="1002" dy="1395" grid="1" gridSize="10" guides="1" tooltips="1" connect="1" arrows="1" fold="1" page="1" pageScale="1" pageWidth="1169" pageHeight="827" background="#ffffff" math="0" shadow="0">
            <root>
                <mxCell id="0"/>
                <mxCell id="1" parent="0"/>
                <mxCell id="2" value="&lt;font style=&quot;font-size: 18px;&quot;&gt;app&lt;/font&gt;" style="rounded=0;whiteSpace=wrap;html=1;shadow=1;strokeColor=#666666;fontColor=#333333;fillColor=#f5f5f5;" parent="1" vertex="1">
                    <mxGeometry y="280" width="120" height="80" as="geometry"/>
                </mxCell>
                <mxCell id="3" value="" style="endArrow=none;html=1;fontSize=18;strokeWidth=5;shadow=1;strokeColor=#000000;fontColor=#18141d;" parent="1" edge="1">
                    <mxGeometry width="50" height="50" relative="1" as="geometry">
                        <mxPoint x="800" y="320" as="sourcePoint"/>
                        <mxPoint x="140" y="320" as="targetPoint"/>
                    </mxGeometry>
                </mxCell>
                <mxCell id="5" value="front" style="text;html=1;align=center;verticalAlign=middle;resizable=0;points=[];autosize=1;fontSize=18;shadow=1;strokeColor=none;fontColor=#18141d;" parent="1" vertex="1">
                    <mxGeometry x="40" y="120" width="60" height="40" as="geometry"/>
                </mxCell>
                <mxCell id="6" value="back" style="text;html=1;align=center;verticalAlign=middle;resizable=0;points=[];autosize=1;fontSize=18;shadow=1;strokeColor=none;fontColor=#18141d;" parent="1" vertex="1">
                    <mxGeometry x="40" y="440" width="60" height="40" as="geometry"/>
                </mxCell>
                <mxCell id="7" value="" style="whiteSpace=wrap;html=1;aspect=fixed;fontSize=18;shadow=1;strokeColor=#666666;fontColor=#333333;fillColor=#f5f5f5;" parent="1" vertex="1">
                    <mxGeometry x="160" y="80" width="170" height="170" as="geometry"/>
                </mxCell>
                <mxCell id="13" value="nav bar" style="rounded=0;whiteSpace=wrap;html=1;fontSize=18;shadow=1;strokeColor=#666666;fontColor=#333333;fillColor=#f5f5f5;" parent="1" vertex="1">
                    <mxGeometry x="180" y="90" width="130" height="30" as="geometry"/>
                </mxCell>
                <mxCell id="14" value="router-view" style="rounded=0;whiteSpace=wrap;html=1;fontSize=18;shadow=1;strokeColor=#666666;fontColor=#333333;fillColor=#f5f5f5;" parent="1" vertex="1">
                    <mxGeometry x="180" y="130" width="130" height="110" as="geometry"/>
                </mxCell>
                <mxCell id="15" value="path = &quot;/&quot;&lt;br&gt;frountLayout" style="text;html=1;align=center;verticalAlign=middle;resizable=0;points=[];autosize=1;fontSize=18;shadow=1;strokeColor=none;fontColor=#18141d;" parent="1" vertex="1">
                    <mxGeometry x="185" y="10" width="120" height="60" as="geometry"/>
                </mxCell>
                <mxCell id="16" value="" style="whiteSpace=wrap;html=1;aspect=fixed;fontSize=18;shadow=1;strokeColor=#666666;fontColor=#18141d;fillColor=#ffffff;" parent="1" vertex="1">
                    <mxGeometry x="160" y="400" width="170" height="170" as="geometry"/>
                </mxCell>
                <mxCell id="17" value="nav bar" style="rounded=0;whiteSpace=wrap;html=1;fontSize=18;shadow=1;strokeColor=#666666;fontColor=#333333;fillStyle=auto;fillColor=#f5f5f5;" parent="1" vertex="1">
                    <mxGeometry x="180" y="410" width="130" height="30" as="geometry"/>
                </mxCell>
                <mxCell id="18" value="router-view" style="rounded=0;whiteSpace=wrap;html=1;fontSize=18;shadow=1;strokeColor=#666666;fontColor=#333333;fillColor=#f5f5f5;" parent="1" vertex="1">
                    <mxGeometry x="180" y="450" width="130" height="110" as="geometry"/>
                </mxCell>
                <mxCell id="19" value="path = &quot;/back&quot;&lt;br&gt;backLayout" style="text;html=1;align=center;verticalAlign=middle;resizable=0;points=[];autosize=1;fontSize=18;shadow=1;strokeColor=none;fontColor=#18141d;" parent="1" vertex="1">
                    <mxGeometry x="180" y="330" width="130" height="60" as="geometry"/>
                </mxCell>
                <mxCell id="20" value="path = &quot;/&quot;" style="text;html=1;align=center;verticalAlign=middle;resizable=0;points=[];autosize=1;fontSize=18;shadow=1;strokeColor=none;fontColor=#18141d;" parent="1" vertex="1">
                    <mxGeometry x="10" y="240" width="100" height="40" as="geometry"/>
                </mxCell>
                <mxCell id="22" value="" style="endArrow=classic;html=1;fontSize=18;entryX=-0.034;entryY=0.639;entryDx=0;entryDy=0;entryPerimeter=0;strokeWidth=5;exitX=1;exitY=0.5;exitDx=0;exitDy=0;shadow=1;fontColor=#18141d;strokeColor=#000000;" parent="1" source="7" target="23" edge="1">
                    <mxGeometry width="50" height="50" relative="1" as="geometry">
                        <mxPoint x="330" y="200" as="sourcePoint"/>
                        <mxPoint x="430" y="50" as="targetPoint"/>
                    </mxGeometry>
                </mxCell>
                <mxCell id="23" value="ProductsView&lt;br&gt;&quot;products&quot;" style="text;html=1;align=center;verticalAlign=middle;resizable=0;points=[];autosize=1;fontSize=18;shadow=1;strokeColor=none;fontColor=#18141d;" parent="1" vertex="1">
                    <mxGeometry x="550" y="-10" width="130" height="60" as="geometry"/>
                </mxCell>
                <mxCell id="24" value="ProductView&lt;br&gt;&quot;product/:id&quot;" style="text;html=1;align=center;verticalAlign=middle;resizable=0;points=[];autosize=1;fontSize=18;shadow=1;strokeColor=none;fontColor=#18141d;" parent="1" vertex="1">
                    <mxGeometry x="560" y="70" width="120" height="60" as="geometry"/>
                </mxCell>
                <mxCell id="25" value="&quot;CartView&quot;" style="text;html=1;align=center;verticalAlign=middle;resizable=0;points=[];autosize=1;fontSize=18;shadow=1;strokeWidth=5;strokeColor=none;fontColor=#000000;" parent="1" vertex="1">
                    <mxGeometry x="560" y="160" width="110" height="40" as="geometry"/>
                </mxCell>
                <mxCell id="26" value="&quot;AboutView&quot;" style="text;html=1;align=center;verticalAlign=middle;resizable=0;points=[];autosize=1;fontSize=18;shadow=1;strokeWidth=5;strokeColor=none;fontColor=#000000;" parent="1" vertex="1">
                    <mxGeometry x="560" y="240" width="120" height="40" as="geometry"/>
                </mxCell>
                <mxCell id="27" value="ProductsView&lt;br&gt;&quot;products&quot;" style="text;html=1;align=center;verticalAlign=middle;resizable=0;points=[];autosize=1;fontSize=18;shadow=1;strokeColor=none;fontColor=#18141d;" parent="1" vertex="1">
                    <mxGeometry x="550" y="360" width="130" height="60" as="geometry"/>
                </mxCell>
                <mxCell id="28" value="&quot;orders&quot;" style="text;html=1;align=center;verticalAlign=middle;resizable=0;points=[];autosize=1;fontSize=18;shadow=1;strokeWidth=5;strokeColor=none;fontColor=#000000;" parent="1" vertex="1">
                    <mxGeometry x="560" y="520" width="90" height="40" as="geometry"/>
                </mxCell>
                <mxCell id="29" value="&quot;coupons&quot;" style="text;html=1;align=center;verticalAlign=middle;resizable=0;points=[];autosize=1;fontSize=18;shadow=1;strokeColor=none;fontColor=#18141d;" parent="1" vertex="1">
                    <mxGeometry x="560" y="560" width="100" height="40" as="geometry"/>
                </mxCell>
                <mxCell id="32" value="" style="endArrow=classic;html=1;fontSize=18;entryX=-0.039;entryY=0.611;entryDx=0;entryDy=0;entryPerimeter=0;strokeWidth=5;exitX=1;exitY=0.5;exitDx=0;exitDy=0;shadow=1;fontColor=#18141d;strokeColor=#000000;" parent="1" source="7" target="24" edge="1">
                    <mxGeometry width="50" height="50" relative="1" as="geometry">
                        <mxPoint x="330" y="200" as="sourcePoint"/>
                        <mxPoint x="526.26" y="35.56000000000006" as="targetPoint"/>
                    </mxGeometry>
                </mxCell>
                <mxCell id="33" value="" style="endArrow=classic;html=1;fontSize=18;entryX=-0.035;entryY=0.496;entryDx=0;entryDy=0;entryPerimeter=0;strokeWidth=5;exitX=1;exitY=0.5;exitDx=0;exitDy=0;shadow=1;fontColor=#18141d;strokeColor=#000000;" parent="1" source="7" target="25" edge="1">
                    <mxGeometry width="50" height="50" relative="1" as="geometry">
                        <mxPoint x="330" y="200" as="sourcePoint"/>
                        <mxPoint x="525.3199999999997" y="114.43999999999994" as="targetPoint"/>
                    </mxGeometry>
                </mxCell>
                <mxCell id="34" value="" style="endArrow=classic;html=1;fontSize=18;entryX=-0.035;entryY=0.496;entryDx=0;entryDy=0;entryPerimeter=0;strokeWidth=5;exitX=1;exitY=0.5;exitDx=0;exitDy=0;shadow=1;fontColor=#18141d;strokeColor=#000000;" parent="1" source="7" target="26" edge="1">
                    <mxGeometry width="50" height="50" relative="1" as="geometry">
                        <mxPoint x="330" y="200" as="sourcePoint"/>
                        <mxPoint x="527.55" y="189.84000000000003" as="targetPoint"/>
                    </mxGeometry>
                </mxCell>
                <mxCell id="36" value="" style="endArrow=classic;html=1;fontSize=18;entryX=-0.012;entryY=0.496;entryDx=0;entryDy=0;entryPerimeter=0;strokeWidth=5;exitX=1;exitY=0.5;exitDx=0;exitDy=0;shadow=1;fontColor=#18141d;strokeColor=#000000;" parent="1" target="27" edge="1">
                    <mxGeometry width="50" height="50" relative="1" as="geometry">
                        <mxPoint x="333.7399999999998" y="480" as="sourcePoint"/>
                        <mxPoint x="560" y="340.56000000000006" as="targetPoint"/>
                    </mxGeometry>
                </mxCell>
                <mxCell id="37" value="" style="endArrow=classic;html=1;fontSize=18;entryX=0.004;entryY=0.165;entryDx=0;entryDy=0;entryPerimeter=0;strokeWidth=5;shadow=1;fontColor=#18141d;strokeColor=#000000;" parent="1" target="28" edge="1">
                    <mxGeometry width="50" height="50" relative="1" as="geometry">
                        <mxPoint x="330" y="480" as="sourcePoint"/>
                        <mxPoint x="568.6799999999998" y="389.8399999999999" as="targetPoint"/>
                    </mxGeometry>
                </mxCell>
                <mxCell id="39" value="" style="endArrow=classic;html=1;fontSize=18;entryX=-0.028;entryY=0.305;entryDx=0;entryDy=0;entryPerimeter=0;strokeWidth=5;shadow=1;fontColor=#18141d;strokeColor=#000000;" parent="1" target="29" edge="1">
                    <mxGeometry width="50" height="50" relative="1" as="geometry">
                        <mxPoint x="330" y="480" as="sourcePoint"/>
                        <mxPoint x="568.7399999999998" y="509.9999999999999" as="targetPoint"/>
                    </mxGeometry>
                </mxCell>
                <mxCell id="41" value="ProductView&lt;br&gt;&quot;product/:id&quot;" style="text;html=1;align=center;verticalAlign=middle;resizable=0;points=[];autosize=1;fontSize=18;shadow=1;strokeColor=none;fontColor=#18141d;" vertex="1" parent="1">
                    <mxGeometry x="560" y="440" width="120" height="60" as="geometry"/>
                </mxCell>
                <mxCell id="42" value="" style="endArrow=classic;html=1;fontSize=18;strokeWidth=5;shadow=1;fontColor=#18141d;strokeColor=#000000;entryX=-0.01;entryY=0.323;entryDx=0;entryDy=0;entryPerimeter=0;" edge="1" parent="1" target="41">
                    <mxGeometry width="50" height="50" relative="1" as="geometry">
                        <mxPoint x="330" y="480" as="sourcePoint"/>
                        <mxPoint x="558.44" y="399.76" as="targetPoint"/>
                    </mxGeometry>
                </mxCell>
            </root>
        </mxGraphModel>
    </diagram>
</mxfile>